<svg xmlns="http://www.w3.org/2000/svg" viewBox="0 0 24 24" width="24" height="24" style="border-radius: 50%">
  <path fill="red" d="M0 0h24v24H0z"/>
  <path d="M17 2h-1a6 6 0 0 0-6 6v4a6 6 0 0 0 0 12h1a6 6 0 0 0 6-6v-4a6 6 0 0 0 0-12zm-1 8v4a4 4 0 0 1 0 8h-1a4 4 0 0 1 0-8V10a4 4 0 0 1 0-8h1a4 4 0 0 1 0 8zm-9 4a1 1 0 0 1-1-1V9a9 9 0 0 1 0-2h2V5H7a3 3 0 0 0 0 6h2v2H7a1 1 0 0 1-1-1V9a7 7 0 0 1 0-2h1V6H6V5h3a5 5 0 0 1 0 10h-1v1h2a1 1 0 0 1 1 1v4a1 1 0 0 1-1 1H7a1 1 0 0 1-1-1v-4a1 1 0 0 1 1-1h2v-1H6V9h1a7 7 0 0 1 0-2z"/>
</svg>
